<svg width="24" height="24" viewBox="0 0 24 24" fill="none" xmlns="http://www.w3.org/2000/svg">
<g clip-path="url(#clip0_1_43)">
<path fill-rule="evenodd" clip-rule="evenodd" d="M10.7371 19.074C12.0571 19.074 13.1871 20.162 13.1871 21.569C13.1871 22.912 12.0571 24 10.7371 24C9.41805 24 8.28705 22.912 8.28705 21.569C8.28705 20.162 9.41805 19.074 10.7371 19.074ZM18.3371 19.074C19.6571 19.074 20.7871 20.162 20.7871 21.569C20.7871 22.912 19.6571 24 18.3371 24C17.0181 24 15.8871 22.912 15.8871 21.569C15.8871 20.162 17.0181 19.074 18.3371 19.074ZM10.7371 20.354C10.0471 20.354 9.54405 20.865 9.54405 21.569C9.54405 22.209 10.0461 22.721 10.7371 22.721C11.3651 22.721 11.9311 22.209 11.9311 21.569C11.9311 20.865 11.3651 20.353 10.7371 20.353V20.354ZM18.3371 20.354C17.7091 20.354 17.1441 20.865 17.1441 21.569C17.1441 22.209 17.7091 22.721 18.3371 22.721C18.9651 22.721 19.5311 22.209 19.5311 21.569C19.5311 20.865 18.9651 20.353 18.3371 20.353V20.354ZM0.687052 0.00799818L4.89605 0.967998C5.14705 1.032 5.27305 1.16 5.33605 1.416L6.34005 6.279H23.4881C23.8021 6.279 24.0531 6.599 23.9901 6.983L21.6661 15.427C21.6031 15.683 21.4161 15.811 21.1641 15.811H8.28805L8.53805 17.219H20.9751C21.6661 17.219 21.6661 18.499 20.9751 18.499H7.97405C7.84396 18.495 7.71864 18.4491 7.61667 18.3683C7.51471 18.2874 7.44155 18.1758 7.40805 18.05L4.20505 2.12L0.436052 1.29C-0.316948 1.097 -0.00394756 -0.120002 0.687052 0.00899818V0.00799818ZM22.5461 7.558H6.59205L7.97405 14.531H20.6601L22.5451 7.557L22.5461 7.558Z" fill="white"/>
</g>
<defs>
<clipPath id="clip0_1_43">
<rect width="24" height="24" fill="white"/>
</clipPath>
</defs>
</svg>
