<svg width="134" height="52" viewBox="0 0 134 52" fill="none" xmlns="http://www.w3.org/2000/svg">
<g clip-path="url(#clip0_1_33)">
<path d="M79.0917 10.2041C78.6477 9.78433 77.7153 9.09478 76.9605 8.83994C75.5268 8.32961 73.9749 8.26694 72.5056 8.66006C71.9072 8.81616 71.334 9.05848 70.8036 9.37959C69.652 10.0788 68.6906 11.0577 68.0064 12.2278C67.2872 13.4725 66.9187 14.8931 66.9408 16.3351C66.9251 17.5795 67.1936 18.8108 67.7252 19.9328C67.814 20.1127 67.9028 20.2776 67.9916 20.4275C68.4833 21.2654 69.12 22.0067 69.8712 22.6161C70.1672 22.8559 70.478 23.0658 70.774 23.2606C71.9246 23.9216 73.2253 24.2678 74.548 24.265C76.2501 24.265 77.7301 23.7403 78.9585 22.721L79.0029 22.691V23.4105C79.016 24.1492 78.9565 24.8874 78.8253 25.6141L78.8105 25.6591C78.8105 25.6891 78.7957 25.7191 78.7957 25.749C78.6806 26.2899 78.4754 26.807 78.1889 27.278C77.4637 28.4173 76.2649 28.9869 74.6072 28.9869H74.5184C74.1265 28.9844 73.7355 28.9494 73.3492 28.882C73.0633 28.8261 72.785 28.7355 72.5204 28.6122C71.967 28.3663 71.4686 28.0093 71.0552 27.5629C70.645 27.1001 70.3192 26.5671 70.0932 25.9889C70.0471 25.8713 70.0076 25.7512 69.9748 25.6291L69.96 25.5991H66.7484L66.7632 25.6591C66.86 26.1989 67.0138 26.7266 67.222 27.2331C67.3589 27.5679 67.5171 27.8934 67.6956 28.2074C68.0128 28.766 68.4009 29.28 68.85 29.7365C69.5525 30.4498 70.3875 31.0154 71.3068 31.4004C71.3683 31.4318 71.4328 31.457 71.4992 31.4753L71.5436 31.4903C72.4536 31.8291 73.4157 32.0017 74.3852 32H74.7108C76.1908 32 77.5081 31.6702 78.6181 31.0106C79.7223 30.3521 80.6202 29.3907 81.2081 28.2374C81.4581 27.7155 81.6517 27.1676 81.7853 26.6035C81.8149 26.4536 81.8593 26.3037 81.8889 26.1538C82.0507 25.1984 82.125 24.2299 82.1109 23.2606V8.73501H79.0917V10.2041ZM79.0029 19.1383C78.6432 19.6358 78.1968 20.0625 77.6857 20.3975C77.5181 20.5062 77.3452 20.6063 77.1677 20.6973C76.4822 21.0597 75.7208 21.2499 74.9476 21.2519C74.2706 21.2599 73.5996 21.1219 72.9792 20.8472C72.4746 20.6263 72.0096 20.3224 71.6028 19.9478L71.5436 19.8878C71.501 19.8566 71.4614 19.8215 71.4252 19.7829C70.9856 19.3374 70.6384 18.8073 70.404 18.2239C70.2938 17.9529 70.2096 17.6718 70.1524 17.3844C70.0765 17.0297 70.0368 16.6681 70.034 16.3051C70.0326 15.6646 70.148 15.0294 70.3744 14.4313C70.5928 13.8492 70.9194 13.3149 71.3364 12.8573C71.7548 12.3958 72.264 12.0281 72.8312 11.778C73.446 11.5019 74.1124 11.3638 74.7848 11.3733C75.6353 11.3653 76.4744 11.5714 77.2269 11.9729C77.9082 12.3529 78.5071 12.8678 78.9881 13.4869V19.1383H79.0029ZM9.25006 1.3148L0 23.9352H3.40402L5.72763 18.1489H15.0221L17.3753 23.9352H20.7941L11.5441 1.3148H9.25006ZM7.04484 14.986L10.3897 6.81625L13.7345 14.986H7.04484ZM32.8118 22.3612L33.4482 23.9352H35.831V8.72002H32.7082V19.1383C32.2223 19.7031 31.6532 20.1886 31.021 20.5774C30.2886 21.0385 29.4413 21.2777 28.579 21.2669C28.0282 21.267 27.4836 21.1495 26.9806 20.9221C26.4984 20.7038 26.0691 20.3815 25.7226 19.9778C25.4436 19.6374 25.2325 19.2454 25.101 18.8235C24.9344 18.2291 24.8595 17.6122 24.8789 16.9947V8.73501H21.7561V16.5C21.7561 17.7892 21.8745 18.8385 22.0965 19.633C22.2992 20.3868 22.6517 21.0907 23.1325 21.7016C23.7534 22.5 24.5488 23.1415 25.4562 23.5754C26.3991 24.0292 27.4315 24.2599 28.4754 24.25C28.9741 24.2512 29.4711 24.1907 29.9554 24.0701C30.3881 23.9685 30.8096 23.8229 31.2134 23.6354C32.131 23.1857 32.6934 22.5561 32.8118 22.3612ZM47.3159 8.39023C46.2059 8.39023 45.2587 8.61509 44.5039 9.03482C43.8892 9.36169 43.3416 9.80432 42.8907 10.339V8.70503H39.8714V23.9202H42.9943V13.8767C43.4155 13.1501 44.0047 12.5379 44.7111 12.0928C45.3798 11.6332 46.1673 11.3829 46.9755 11.3733C47.2829 11.3729 47.5898 11.3979 47.8931 11.4483V8.39023H47.3159ZM61.08 10.2041C60.5324 9.69439 59.7036 9.09478 58.9487 8.83994C57.5151 8.32961 55.9632 8.26694 54.4939 8.66006C53.8955 8.81616 53.3223 9.05848 52.7919 9.37959C51.6403 10.0788 50.6789 11.0577 49.9947 12.2278C49.2755 13.4725 48.907 14.8931 48.9291 16.3351C48.9053 17.7706 49.2686 19.1855 49.9799 20.4275C50.6549 21.5957 51.6125 22.5707 52.7623 23.2606C53.9129 23.9216 55.2136 24.2678 56.5363 24.265C57.3989 24.2757 58.2563 24.1284 59.0672 23.8303C59.8504 23.521 60.5466 23.0217 61.0948 22.3762L61.7312 23.9502H64.114V8.72002H61.0948L61.08 10.2041ZM60.9764 19.1383C60.4957 19.7984 59.8666 20.3328 59.1412 20.6973C58.4557 21.0597 57.6943 21.2499 56.9211 21.2519C56.2441 21.2599 55.5731 21.1219 54.9527 20.8472C54.3756 20.5902 53.8492 20.2296 53.3987 19.7829C52.9591 19.3374 52.6119 18.8073 52.3775 18.2239C52.1378 17.6188 52.0171 16.9721 52.0223 16.3201C52.0208 15.6796 52.1362 15.0443 52.3627 14.4463C52.5811 13.8642 52.9076 13.3299 53.3247 12.8723C53.7391 12.4062 54.2493 12.0378 54.8195 11.793C55.4342 11.5169 56.1007 11.3788 56.7731 11.3883C57.6236 11.3803 58.4627 11.5864 59.2152 11.9879C59.8965 12.3679 60.4954 12.8828 60.9764 13.5019V19.1383ZM85.6481 1H88.7709V23.9352H85.6481V1ZM130.774 8.72002L126.718 18.9434L122.663 8.75V8.72002H120.488L116.432 18.9434L112.377 8.75L112.362 8.72002H109.151L115.248 23.9352H117.424L121.568 13.412L125.712 23.9052L125.727 23.9352H127.902L134 8.72002H130.774Z" fill="black"/>
</g>
<g clip-path="url(#clip1_1_33)">
<path d="M99.5 20.4469C98.0166 20.4469 96.5666 20.8898 95.3332 21.7197C94.0998 22.5496 93.1385 23.7291 92.5709 25.1091C92.0032 26.4891 91.8547 28.0077 92.1441 29.4727C92.4335 30.9377 93.1478 32.2834 94.1967 33.3396C95.2456 34.3958 96.5819 35.1151 98.0368 35.4065C99.4917 35.6979 101 35.5484 102.37 34.9768C103.741 34.4051 104.912 33.4371 105.736 32.1952C106.56 30.9532 107 29.493 107 27.9993C106.998 25.997 106.207 24.0773 104.801 22.6615C103.395 21.2456 101.488 20.4492 99.5 20.4469ZM99.5 32.7321C98.5704 32.7321 97.6617 32.4545 96.8888 31.9345C96.1159 31.4144 95.5135 30.6753 95.1577 29.8105C94.802 28.9456 94.7089 27.994 94.8903 27.076C95.0716 26.1579 95.5193 25.3146 96.1766 24.6527C96.8339 23.9908 97.6713 23.54 98.583 23.3574C99.4948 23.1748 100.44 23.2685 101.299 23.6267C102.157 23.9849 102.891 24.5916 103.408 25.3699C103.924 26.1482 104.2 27.0632 104.2 27.9993C104.196 29.2533 103.7 30.4549 102.819 31.3417C101.939 32.2285 100.745 32.7283 99.5 32.7321ZM99.5 36.8953C98.0166 36.8953 96.5666 37.3382 95.3332 38.1681C94.0998 38.9979 93.1385 40.1774 92.5709 41.5575C92.0032 42.9375 91.8547 44.456 92.1441 45.921C92.4335 47.386 93.1478 48.7317 94.1967 49.788C95.2456 50.8442 96.5819 51.5635 98.0368 51.8549C99.4917 52.1463 101 51.9967 102.37 51.4251C103.741 50.8535 104.912 49.8855 105.736 48.6435C106.56 47.4015 107 45.9413 107 44.4476C106.998 42.4453 106.207 40.5257 104.801 39.1098C103.395 37.694 101.488 36.8975 99.5 36.8953ZM99.5 49.1805C98.5704 49.1805 97.6617 48.9029 96.8888 48.3828C96.1159 47.8628 95.5135 47.1236 95.1577 46.2588C94.802 45.394 94.7089 44.4424 94.8903 43.5243C95.0716 42.6062 95.5193 41.7629 96.1766 41.101C96.8339 40.4391 97.6713 39.9884 98.583 39.8057C99.4948 39.6231 100.44 39.7169 101.299 40.0751C102.157 40.4333 102.891 41.0399 103.408 41.8182C103.924 42.5965 104.2 43.5116 104.2 44.4476C104.196 45.7017 103.7 46.9033 102.819 47.79C101.939 48.6768 100.745 49.1767 99.5 49.1805ZM99.5 4C98.0166 4 96.5666 4.44294 95.3332 5.2728C94.0998 6.10267 93.1385 7.28219 92.5709 8.6622C92.0032 10.0422 91.8547 11.5608 92.1441 13.0258C92.4335 14.4908 93.1478 15.8365 94.1967 16.8927C95.2456 17.9489 96.5819 18.6682 98.0368 18.9596C99.4917 19.251 101 19.1015 102.37 18.5299C103.741 17.9582 104.912 16.9902 105.736 15.7482C106.56 14.5063 107 13.0461 107 11.5524C106.998 9.55006 106.207 7.63041 104.801 6.21456C103.395 4.79871 101.488 4.00228 99.5 4V4ZM99.5 16.2852C98.5704 16.2852 97.6617 16.0076 96.8888 15.4876C96.1159 14.9675 95.5135 14.2284 95.1577 13.3635C94.802 12.4987 94.7089 11.5471 94.8903 10.629C95.0716 9.71097 95.5193 8.86766 96.1766 8.20576C96.8339 7.54387 97.6713 7.09311 98.583 6.91049C99.4948 6.72788 100.44 6.8216 101.299 7.17982C102.157 7.53803 102.891 8.14465 103.408 8.92296C103.924 9.70127 104.2 10.6163 104.2 11.5524C104.196 12.8064 103.7 14.008 102.819 14.8948C101.939 15.7815 100.745 16.2814 99.5 16.2852Z" fill="black"/>
</g>
<defs>
<clipPath id="clip0_1_33">
<rect width="134" height="31" fill="white" transform="translate(0 1)"/>
</clipPath>
<clipPath id="clip1_1_33">
<rect width="15" height="48" fill="white" transform="translate(92 4)"/>
</clipPath>
</defs>
</svg>
