<svg  version="1.1" baseProfile="full" xmlns="http://www.w3.org/2000/svg"
 xmlns:xlink="http://www.w3.org/1999/xlink"
xmlns:ev="http://www.w3.org/2001/xml-events" display="none">

<symbol id="logo" width="134" height="31" viewBox="0 0 134 31" fill="none" xmlns="http://www.w3.org/2000/svg">
<path d="M79.0917 9.20406C78.6477 8.78433 77.7153 8.09478 76.9605 7.83994C75.5268 7.32961 73.9749 7.26694 72.5056 7.66006C71.9072 7.81616 71.334 8.05848 70.8036 8.37959C69.652 9.07877 68.6906 10.0577 68.0064 11.2278C67.2872 12.4725 66.9187 13.8931 66.9408 15.3351C66.9251 16.5795 67.1936 17.8108 67.7252 18.9328C67.814 19.1127 67.9028 19.2776 67.9916 19.4275C68.4833 20.2654 69.12 21.0067 69.8712 21.6161C70.1672 21.8559 70.478 22.0658 70.774 22.2606C71.9246 22.9216 73.2253 23.2678 74.548 23.265C76.2501 23.265 77.7301 22.7403 78.9585 21.721L79.0029 21.691V22.4105C79.016 23.1492 78.9565 23.8874 78.8253 24.6141L78.8105 24.6591C78.8105 24.6891 78.7957 24.7191 78.7957 24.749C78.6806 25.2899 78.4754 25.807 78.1889 26.278C77.4637 27.4173 76.2649 27.9869 74.6072 27.9869H74.5184C74.1265 27.9844 73.7355 27.9494 73.3492 27.882C73.0633 27.8261 72.785 27.7355 72.5204 27.6122C71.967 27.3663 71.4686 27.0093 71.0552 26.5629C70.645 26.1001 70.3192 25.5671 70.0932 24.9889C70.0471 24.8713 70.0076 24.7512 69.9748 24.6291L69.96 24.5991H66.7484L66.7632 24.6591C66.86 25.1989 67.0138 25.7266 67.222 26.2331C67.3589 26.5679 67.5171 26.8934 67.6956 27.2074C68.0128 27.766 68.4009 28.28 68.85 28.7365C69.5525 29.4498 70.3875 30.0154 71.3068 30.4004C71.3683 30.4318 71.4328 30.457 71.4992 30.4753L71.5436 30.4903C72.4536 30.8291 73.4157 31.0017 74.3852 31H74.7108C76.1908 31 77.5081 30.6702 78.6181 30.0106C79.7223 29.3521 80.6202 28.3907 81.2081 27.2374C81.4581 26.7155 81.6517 26.1676 81.7853 25.6035C81.8149 25.4536 81.8593 25.3037 81.8889 25.1538C82.0507 24.1984 82.125 23.2299 82.1109 22.2606V7.73501H79.0917V9.20406ZM79.0029 18.1383C78.6432 18.6358 78.1968 19.0625 77.6857 19.3975C77.5181 19.5062 77.3452 19.6063 77.1677 19.6973C76.4822 20.0597 75.7208 20.2499 74.9476 20.2519C74.2706 20.2599 73.5996 20.1219 72.9792 19.8472C72.4746 19.6263 72.0096 19.3224 71.6028 18.9478L71.5436 18.8878C71.501 18.8566 71.4614 18.8215 71.4252 18.7829C70.9856 18.3374 70.6384 17.8073 70.404 17.2239C70.2938 16.9529 70.2096 16.6718 70.1524 16.3844C70.0765 16.0297 70.0368 15.6681 70.034 15.3051C70.0326 14.6646 70.148 14.0294 70.3744 13.4313C70.5928 12.8492 70.9194 12.3149 71.3364 11.8573C71.7548 11.3958 72.264 11.0281 72.8312 10.778C73.446 10.5019 74.1124 10.3638 74.7848 10.3733C75.6353 10.3653 76.4744 10.5714 77.2269 10.9729C77.9082 11.3529 78.5071 11.8678 78.9881 12.4869V18.1383H79.0029ZM9.25006 0.314797L0 22.9352H3.40402L5.72763 17.1489H15.0221L17.3753 22.9352H20.7941L11.5441 0.314797H9.25006ZM7.04484 13.986L10.3897 5.81625L13.7345 13.986H7.04484ZM32.8118 21.3612L33.4482 22.9352H35.831V7.72002H32.7082V18.1383C32.2223 18.7031 31.6532 19.1886 31.021 19.5774C30.2886 20.0385 29.4413 20.2777 28.579 20.2669C28.0282 20.267 27.4836 20.1495 26.9806 19.9221C26.4984 19.7038 26.0691 19.3815 25.7226 18.9778C25.4436 18.6374 25.2325 18.2454 25.101 17.8235C24.9344 17.2291 24.8595 16.6122 24.8789 15.9947V7.73501H21.7561V15.5C21.7561 16.7892 21.8745 17.8385 22.0965 18.633C22.2992 19.3868 22.6517 20.0907 23.1325 20.7016C23.7534 21.5 24.5488 22.1415 25.4562 22.5754C26.3991 23.0292 27.4315 23.2599 28.4754 23.25C28.9741 23.2512 29.4711 23.1907 29.9554 23.0701C30.3881 22.9685 30.8096 22.8229 31.2134 22.6354C32.131 22.1857 32.6934 21.5561 32.8118 21.3612ZM47.3159 7.39023C46.2059 7.39023 45.2587 7.61509 44.5039 8.03482C43.8892 8.36169 43.3416 8.80432 42.8907 9.33897V7.70503H39.8714V22.9202H42.9943V12.8767C43.4155 12.1501 44.0047 11.5379 44.7111 11.0928C45.3798 10.6332 46.1673 10.3829 46.9755 10.3733C47.2829 10.3729 47.5898 10.3979 47.8931 10.4483V7.39023H47.3159ZM61.08 9.20406C60.5324 8.69439 59.7036 8.09478 58.9487 7.83994C57.5151 7.32961 55.9632 7.26694 54.4939 7.66006C53.8955 7.81616 53.3223 8.05848 52.7919 8.37959C51.6403 9.07877 50.6789 10.0577 49.9947 11.2278C49.2755 12.4725 48.907 13.8931 48.9291 15.3351C48.9053 16.7706 49.2686 18.1855 49.9799 19.4275C50.6549 20.5957 51.6125 21.5707 52.7623 22.2606C53.9129 22.9216 55.2136 23.2678 56.5363 23.265C57.3989 23.2757 58.2563 23.1284 59.0672 22.8303C59.8504 22.521 60.5466 22.0217 61.0948 21.3762L61.7312 22.9502H64.114V7.72002H61.0948V9.20406H61.08ZM60.9764 18.1383C60.4957 18.7984 59.8666 19.3328 59.1412 19.6973C58.4557 20.0597 57.6943 20.2499 56.9211 20.2519C56.2441 20.2599 55.5731 20.1219 54.9527 19.8472C54.3756 19.5902 53.8492 19.2296 53.3987 18.7829C52.9591 18.3374 52.6119 17.8073 52.3775 17.2239C52.1378 16.6188 52.0171 15.9721 52.0223 15.3201C52.0208 14.6796 52.1362 14.0443 52.3627 13.4463C52.5811 12.8642 52.9076 12.3299 53.3247 11.8723C53.7391 11.4062 54.2493 11.0378 54.8195 10.793C55.4342 10.5169 56.1007 10.3788 56.7731 10.3883C57.6236 10.3803 58.4627 10.5864 59.2152 10.9879C59.8965 11.3679 60.4954 11.8828 60.9764 12.5019V18.1383ZM85.6481 0H88.7709V22.9352H85.6481V0ZM130.774 7.72002L126.718 17.9434L122.663 7.75V7.72002H120.488L116.432 17.9434L112.377 7.75L112.362 7.72002H109.151L115.248 22.9352H117.424L121.568 12.412L125.712 22.9052L125.727 22.9352H127.902L134 7.72002H130.774ZM105.051 22.2007C104.348 21.4873 103.514 20.9218 102.594 20.5367C100.618 19.7373 98.4137 19.7373 96.4374 20.5367C95.5142 20.9144 94.6778 21.4808 93.9806 22.2007C93.7817 22.4051 93.594 22.6203 93.4182 22.8453L93.359 22.9352H105.673L105.613 22.8453C105.421 22.6204 105.229 22.3956 105.051 22.2007ZM99.501 2.86315C97.9642 2.86315 96.462 3.32472 95.1842 4.18947C93.9064 5.05423 92.9105 6.28335 92.3224 7.72139C91.7343 9.15943 91.5804 10.7418 91.8802 12.2684C92.1801 13.795 92.9201 15.1973 94.0067 16.298C95.0934 17.3986 96.4779 18.1481 97.9851 18.4518C99.4924 18.7554 101.055 18.5996 102.474 18.0039C103.894 17.4083 105.108 16.3996 105.962 15.1054C106.815 13.8112 107.271 12.2896 107.271 10.7331C107.269 8.64657 106.449 6.64621 104.993 5.17083C103.536 3.69545 101.561 2.86553 99.501 2.86315ZM99.501 15.6649C98.5379 15.6649 97.5965 15.3756 96.7958 14.8337C95.995 14.2918 95.3709 13.5216 95.0024 12.6204C94.6339 11.7192 94.5374 10.7276 94.7253 9.77092C94.9132 8.81425 95.377 7.93548 96.0579 7.24575C96.7389 6.55603 97.6065 6.08632 98.5511 5.89602C99.4956 5.70573 100.475 5.80339 101.364 6.17667C102.254 6.54995 103.015 7.18207 103.55 7.9931C104.085 8.80414 104.37 9.75765 104.37 10.7331C104.366 12.0399 103.852 13.292 102.94 14.216C102.027 15.1401 100.791 15.6609 99.501 15.6649Z" fill="white"/>
</symbol>
<symbol id="cart" fill="none" width="24" height="24" viewBox="0 0 24 24" xmlns="http://www.w3.org/2000/svg">
<g clip-path="url(#clip0_1_43)">
<path fill-rule="evenodd" clip-rule="evenodd" d="M10.7371 19.074C12.0571 19.074 13.1871 20.162 13.1871 21.569C13.1871 22.912 12.0571 24 10.7371 24C9.41805 24 8.28705 22.912 8.28705 21.569C8.28705 20.162 9.41805 19.074 10.7371 19.074ZM18.3371 19.074C19.6571 19.074 20.7871 20.162 20.7871 21.569C20.7871 22.912 19.6571 24 18.3371 24C17.0181 24 15.8871 22.912 15.8871 21.569C15.8871 20.162 17.0181 19.074 18.3371 19.074ZM10.7371 20.354C10.0471 20.354 9.54405 20.865 9.54405 21.569C9.54405 22.209 10.0461 22.721 10.7371 22.721C11.3651 22.721 11.9311 22.209 11.9311 21.569C11.9311 20.865 11.3651 20.353 10.7371 20.353V20.354ZM18.3371 20.354C17.7091 20.354 17.1441 20.865 17.1441 21.569C17.1441 22.209 17.7091 22.721 18.3371 22.721C18.9651 22.721 19.5311 22.209 19.5311 21.569C19.5311 20.865 18.9651 20.353 18.3371 20.353V20.354ZM0.687052 0.00799818L4.89605 0.967998C5.14705 1.032 5.27305 1.16 5.33605 1.416L6.34005 6.279H23.4881C23.8021 6.279 24.0531 6.599 23.9901 6.983L21.6661 15.427C21.6031 15.683 21.4161 15.811 21.1641 15.811H8.28805L8.53805 17.219H20.9751C21.6661 17.219 21.6661 18.499 20.9751 18.499H7.97405C7.84396 18.495 7.71864 18.4491 7.61667 18.3683C7.51471 18.2874 7.44155 18.1758 7.40805 18.05L4.20505 2.12L0.436052 1.29C-0.316948 1.097 -0.00394756 -0.120002 0.687052 0.00899818V0.00799818ZM22.5461 7.558H6.59205L7.97405 14.531H20.6601L22.5451 7.557L22.5461 7.558Z" fill="white"/>
</g>
<defs>
<clipPath id="clip0_1_43">
<rect width="24" height="24" fill="white"/>
</clipPath>
</defs>
</symbol>
<symbol id ="logo-icn" viewBox="0 0 33 44" xmlns="http://www.w3.org/2000/svg">
<g clip-path="url(#clip0_1_186)">
<path clip-rule="evenodd" d="M17 36C19.322 36 21.508 36.47 23.496 37.397C25.4767 38.3184 27.2431 39.6434 28.682 41.287C29.082 41.744 29.48 42.253 29.862 42.802L30 43H4L4.137 42.802C4.50208 42.2759 4.89601 41.7705 5.317 41.288C6.75607 39.6438 8.52283 38.3185 10.504 37.397C12.492 36.47 14.678 36 17 36ZM16.5 -1C25.598 -1 33 6.402 33 15.5C33 24.598 25.598 32 16.5 32C7.402 32 0 24.598 0 15.5C0 6.402 7.402 -1 16.5 -1ZM16.5 5C10.71 5 6 9.71 6 15.5C6 21.29 10.71 26 16.5 26C22.29 26 27 21.29 27 15.5C27 9.71 22.29 5 16.5 5Z"/>
</g>
<defs>
<clipPath id="clip0_1_186">
<rect width="33" height="44" fill="white"/>
</clipPath>
</defs>
</symbol>
<symbol id="fb" width="44" height="44" viewBox="0 0 44 44" fill="none" xmlns="http://www.w3.org/2000/svg">
<path fill-rule="evenodd" clip-rule="evenodd" d="M22 0C34.15 0 44 9.85 44 22C44 34.15 34.15 44 22 44C9.85 44 0 34.15 0 22C0 9.85 9.85 0 22 0ZM22 1C10.402 1 1 10.402 1 22C1 33.598 10.402 43 22 43C33.598 43 43 33.598 43 22C43 10.402 33.598 1 22 1ZM26.978 12V15.964H24.944C23.421 15.964 23.321 16.518 23.321 17.552L23.314 19.536H27L26.569 23.499H23.314V35H18.437V23.499H16V19.536H18.437V17.156C18.437 13.923 19.813 12 23.723 12H26.978Z" fill="white"/>
</symbol>
<symbol id="inst" width="44" height="44" viewBox="0 0 44 44" fill="none" xmlns="http://www.w3.org/2000/svg">
<path fill-rule="evenodd" clip-rule="evenodd" d="M22 0C34.15 0 44 9.85 44 22C44 34.15 34.15 44 22 44C9.85 44 0 34.15 0 22C0 9.85 9.85 0 22 0ZM22 1C10.402 1 1 10.402 1 22C1 33.598 10.402 43 22 43C33.598 43 43 33.598 43 22C43 10.402 33.598 1 22 1ZM23.096 11C25.106 11.004 25.524 11.02 26.536 11.066C27.706 11.12 28.506 11.306 29.206 11.578C29.9398 11.854 30.6046 12.2867 31.154 12.846C31.7134 13.3957 32.1461 14.0608 32.422 14.795C32.694 15.495 32.88 16.294 32.934 17.465C32.987 18.638 33 19.013 33 22C33 24.987 32.987 25.362 32.934 26.535C32.88 27.706 32.694 28.505 32.422 29.205C32.1461 29.9392 31.7134 30.6043 31.154 31.154C30.6044 31.7137 29.9392 32.1468 29.205 32.423C28.505 32.694 27.706 32.88 26.535 32.933C25.362 32.987 24.987 33 22 33C19.013 33 18.638 32.987 17.465 32.934C16.294 32.88 15.495 32.694 14.795 32.423C14.0607 32.1465 13.3955 31.7131 12.846 31.153C12.2864 30.6037 11.8533 29.9389 11.577 29.205C11.306 28.505 11.12 27.706 11.067 26.535C11.02 25.524 11.004 25.106 11.001 23.096V20.904C11.004 18.894 11.02 18.476 11.066 17.464C11.12 16.294 11.306 15.494 11.577 14.794C11.8536 14.06 12.287 13.3952 12.847 12.846C13.3964 12.2867 14.0612 11.854 14.795 11.578C15.495 11.306 16.294 11.12 17.465 11.066C18.476 11.02 18.894 11.004 20.904 11.001H23.096V11ZM23.076 12.983H20.923C18.951 12.986 18.555 13 17.555 13.046C16.483 13.096 15.9 13.274 15.513 13.425C14.999 13.625 14.633 13.863 14.248 14.248C13.8826 14.6029 13.6013 15.0351 13.425 15.513C13.275 15.9 13.095 16.483 13.046 17.555C12.993 18.715 12.982 19.063 12.982 22C12.982 24.937 12.993 25.285 13.046 26.445C13.095 27.517 13.274 28.1 13.425 28.488C13.625 29.001 13.863 29.368 14.248 29.752C14.633 30.137 14.999 30.376 15.513 30.575C15.9 30.725 16.483 30.905 17.555 30.954C18.715 31.007 19.063 31.018 22 31.018C24.937 31.018 25.285 31.007 26.445 30.954C27.517 30.905 28.1 30.726 28.487 30.575C29.001 30.375 29.367 30.137 29.752 29.752C30.137 29.367 30.376 29.001 30.575 28.488C30.725 28.1 30.905 27.518 30.954 26.445C31 25.445 31.014 25.049 31.017 23.077V20.924C31.014 18.951 31 18.555 30.954 17.555C30.904 16.483 30.726 15.9 30.575 15.513C30.375 14.999 30.137 14.633 29.752 14.248C29.3971 13.8826 28.9649 13.6014 28.487 13.425C28.1 13.275 27.517 13.095 26.445 13.046C25.445 13 25.049 12.986 23.076 12.983ZM22.022 16.369C23.5213 16.369 24.9591 16.9646 26.0193 18.0247C27.0794 19.0849 27.675 20.5227 27.675 22.022C27.675 23.5213 27.0794 24.9591 26.0193 26.0193C24.9591 27.0794 23.5213 27.675 22.022 27.675C20.5227 27.675 19.0849 27.0794 18.0247 26.0193C16.9646 24.9591 16.369 23.5213 16.369 22.022C16.369 20.5227 16.9646 19.0849 18.0247 18.0247C19.0849 16.9646 20.5227 16.369 22.022 16.369ZM22.022 18.352C21.0487 18.352 20.1152 18.7387 19.4269 19.4269C18.7387 20.1152 18.352 21.0487 18.352 22.022C18.352 22.9953 18.7387 23.9288 19.4269 24.6171C20.1152 25.3053 21.0487 25.692 22.022 25.692C22.9953 25.692 23.9288 25.3053 24.6171 24.6171C25.3053 23.9288 25.692 22.9953 25.692 22.022C25.692 21.0487 25.3053 20.1152 24.6171 19.4269C23.9288 18.7387 22.9953 18.352 22.022 18.352ZM27.849 14.798C28.024 14.7932 28.1982 14.8235 28.3613 14.8871C28.5244 14.9507 28.6731 15.0464 28.7986 15.1685C28.9241 15.2906 29.0239 15.4366 29.092 15.5978C29.1601 15.7591 29.1952 15.9324 29.1952 16.1075C29.1952 16.2826 29.1601 16.4559 29.092 16.6172C29.0239 16.7784 28.9241 16.9244 28.7986 17.0465C28.6731 17.1686 28.5244 17.2643 28.3613 17.3279C28.1982 17.3915 28.024 17.4218 27.849 17.417C27.5016 17.417 27.1684 17.279 26.9227 17.0333C26.677 16.7876 26.539 16.4544 26.539 16.107C26.539 15.7596 26.677 15.4264 26.9227 15.1807C27.1684 14.935 27.5016 14.797 27.849 14.797V14.798Z" fill="white"/>
</symbol>
<symbol id="close" width="10" height="10" viewBox="0 0 10 10" fill="none" xmlns="http://www.w3.org/2000/svg">
<path fill-rule="evenodd" clip-rule="evenodd" d="M9.61194 1.126L5.73794 5L9.61194 8.875L8.87394 9.613L4.99994 5.737L1.12594 9.612L0.387939 8.874L4.26194 4.999L0.387939 1.126L1.12594 0.388L4.99994 4.262L8.87394 0.388L9.61194 1.126Z" fill="black"/>
</symbol>
</svg>